<svg xmlns="http://www.w3.org/2000/svg" viewBox="0 0 329.29 340.14"><defs><style>.cls-1{fill:#e6e6e6;}.cls-2{fill:#fff;stroke:#dbdbdb;stroke-miterlimit:10;}.cls-3{fill:#575756;}.cls-4{fill:#35a8e0;}.cls-5{font-size:26px;fill:#999;font-family:FuturaBT-Book, Futura Bk BT;}.cls-6{letter-spacing:-0.02em;}</style></defs><g id="Camada_2" data-name="Camada 2"><g id="Camada_1-2" data-name="Camada 1"><path class="cls-1" d="M320.3,253c4.18-4.31,6.3-10.45,6.3-18.27a27.54,27.54,0,0,0-3.81-14.5c0-.7.08-1.41.08-2.13v-44a25.59,25.59,0,0,0-2.28-10.78,24,24,0,1,0-45.45-10.83c0,.73.05,1.45.11,2.16a55.58,55.58,0,0,0-22.13-4.25c-12.62,0-23.16,4.06-30.19,10.89-7.09-6.22-16.64-10.35-28.23-10.79a34.81,34.81,0,0,0,0-5.11c-.19-2.43-.37-15.79-.54-28.71C193.9,98,193.59,74.61,193,55.4c-.91-29.55-1.28-40.64-8.51-46a15.46,15.46,0,0,0-11.59-4.73c-8.89-1.13-16.94,6.57-38.15,27C120.89,45,104.35,61.49,91.06,74.74,81.92,83.86,72.47,93.29,70.64,94.9c-9.5,8.35-9.31,16.34-8.46,21.78.72,4.57,5.18,12.54-4.16,12.27H53.77c-11.15,0-19.69,5.7-23.45,15.63L7.17,205.84c-1.87,5-2.75,8.94-2.75,12.4a23.68,23.68,0,0,0,3.9,13.23,20.67,20.67,0,0,0-5.38,14.06c0,4,8.14,40.34,24.39,49.87a20.55,20.55,0,0,0,10.36,2.86,19.53,19.53,0,0,0,9.56-2.5c2.2-1.24,6.37-3.58,12.75-9.9A29.88,29.88,0,0,0,87,296c.45-.06.9-.14,1.34-.23a33,33,0,0,0,10.44-4.25,28.06,28.06,0,0,0,6.43,3.83,31.13,31.13,0,0,0,12.13,2.6,23.61,23.61,0,0,0,3.59-.26,25.78,25.78,0,0,0,5.7-1.45,33,33,0,0,0,9.1,1.18c6,0,10.27-2.54,13.94-7a25.11,25.11,0,0,0,17.69,6.69,24.27,24.27,0,0,0,16.23-6.74,22.05,22.05,0,0,0,1.91,1.53,21.64,21.64,0,0,0,16.79,3.66,32.08,32.08,0,0,0,10.18-4.14A32.68,32.68,0,0,0,232,297.76c9.21,0,23.05-5.18,33.62-14.29,5.82,13.1,23.43,18.92,33.26,18.92,16.47,0,30.38-13.12,30.38-28.65C329.29,265.17,325.49,258.44,320.3,253Z"/><path class="cls-2" d="M316.26,247.73c4.16-4.29,6.27-10.4,6.27-18.18a27.45,27.45,0,0,0-3.79-14.42c.05-.7.08-1.41.08-2.13V169.25a25.55,25.55,0,0,0-2.27-10.73,23.89,23.89,0,1,0-45.22-10.77c0,.73.05,1.44.11,2.15a55.41,55.41,0,0,0-22-4.23c-12.56,0-23,4-30,10.84-7-6.19-16.56-10.3-28.09-10.74a34.54,34.54,0,0,0,0-5.09c-.18-2.41-.36-15.71-.54-28.56-.25-18.67-.56-41.9-1.15-61-.91-29.4-1.28-40.43-8.48-45.79A15.31,15.31,0,0,0,169.59.61c-8.84-1.12-16.84,6.54-38,26.87C117.86,40.75,101.4,57.16,88.18,70.34,79.09,79.42,69.68,88.8,67.86,90.4c-9.45,8.31-9.26,16.26-8.41,21.67.71,4.54,5.14,12.47-4.14,12.21H51.07c-11.08,0-19.59,5.67-23.32,15.55l-23,60.95c-1.86,5-2.73,8.9-2.73,12.33a23.55,23.55,0,0,0,3.88,13.17,20.54,20.54,0,0,0-5.36,14c0,3.94,8.1,40.13,24.27,49.61a20.36,20.36,0,0,0,10.31,2.85,19.33,19.33,0,0,0,9.51-2.49c2.19-1.22,6.34-3.55,12.69-9.85A29.73,29.73,0,0,0,84.16,290.5a12.51,12.51,0,0,0,1.34-.23,32.78,32.78,0,0,0,10.38-4.22,28.31,28.31,0,0,0,6.39,3.81,31,31,0,0,0,12.08,2.58,24.46,24.46,0,0,0,3.56-.25,25.47,25.47,0,0,0,5.68-1.45,32.63,32.63,0,0,0,9,1.18c6,0,10.23-2.53,13.87-7a25.07,25.07,0,0,0,17.6,6.65,24.19,24.19,0,0,0,16.16-6.71,20.25,20.25,0,0,0,1.89,1.52,21.58,21.58,0,0,0,16.71,3.65A31.77,31.77,0,0,0,209,285.93a32.51,32.51,0,0,0,19.45,6.31c9.16,0,22.93-5.15,33.45-14.22,5.79,13,23.31,18.83,33.09,18.83,16.39,0,30.23-13.06,30.23-28.51C325.21,259.81,321.42,253.11,316.26,247.73Z"/><path class="cls-3" d="M43.64,141.84c1.52-4,4.34-5.43,8.68-5.43h4.24c4,0,7.6,1,9.55,6.52l21.5,59.82c.65,1.74,1.73,4.88,1.73,6.84,0,4.34-3.8,7.81-8.36,7.81-3.9,0-6.73-1.41-8-4.88l-4.56-13H39.73l-4.67,13c-1.19,3.47-3.69,4.88-7.93,4.88-4.88,0-8.25-3-8.25-7.81,0-2,1.09-5.1,1.74-6.84Zm10.75,13.9h-.22L43.64,187.12H64.48Z"/><path class="cls-3" d="M150.36,209.91c0,4.89-2.28,7.49-7.17,7.49-4.67,0-7.16-2.6-7.16-7.49v-2.49h-.22c-2.61,6.73-9,10-16.72,10-13.25,0-24.86-9.66-24.86-30.18,0-15.2,7.71-29.42,24.43-29.42,7,0,12.48,2.93,15.63,8h.22v-21.5c0-5.21,3.14-7.93,7.92-7.93s7.93,2.72,7.93,7.93ZM122.67,205c9.23,0,12.71-8.25,12.71-17.26,0-8.15-3-17.7-12.71-17.59-10.09,0-12.59,10.2-12.59,17.59C110.08,197.1,114.2,204.81,122.67,205Z"/><path class="cls-3" d="M176.41,190.59c0,8.36,5.43,14.44,14.66,14.44,11.94,0,11.94-7.82,18.35-7.82a6.55,6.55,0,0,1,6.51,6.19c0,9.55-15.31,14-24.86,14-22.15,0-30.51-15-30.51-28.77,0-18.45,11.18-30.83,30-30.83,18.24,0,28.66,12.92,28.66,25.95,0,5.43-1.63,6.84-6.95,6.84Zm27.8-9.12c-.87-7.27-6.3-12.59-13.36-12.59-7.92,0-12.7,4.88-14.44,12.59Z"/><path class="cls-3" d="M250.67,157.8c12.05,0,24.21,4.78,24.21,12,0,3.69-2.49,7-6.62,7-6.19,0-6.41-7.27-16.39-7.27-5.54,0-9.12,1.52-9.12,4.88,0,3.69,3.58,4.56,8.47,5.65l6.62,1.52c9,2.06,19.76,5.86,19.76,16.93,0,12.92-12.49,18.89-24.43,18.89-14.33,0-26.27-6.4-26.27-14.22,0-3.47,1.95-6.62,6.4-6.62,6.84,0,7.49,9.77,19.22,9.77,5.64,0,9.23-2.5,9.23-5.75,0-4-3.48-4.67-9.12-6.08l-9.34-2.28c-9.23-2.28-16.39-6.08-16.39-16.72C226.9,162.58,239.71,157.8,250.67,157.8Z"/><path class="cls-3" d="M296.49,136a8.25,8.25,0,1,1-8.25,8.25A8.25,8.25,0,0,1,296.49,136Zm-7.93,29.75c0-4.24,1.74-7.93,7.93-7.93s7.92,3.69,7.92,7.93v43.75c0,4.23-1.73,7.92-7.92,7.92s-7.93-3.69-7.93-7.92Z"/><path class="cls-4" d="M38.19,273.06c-9.53,5.34-20.79-32.89-20.79-36.32,0-4.82,6.11-6.21,7.61-6.21,3.75.32,4.72,4.28,6.22,11.89a44,44,0,0,0,2.89,10c1,2.25,2.14,4.18,3.11,4.29,11.28,5.71,79.53-123.4,134-244C131.46,119.45,109,164.33,107.4,168.32,102.71,180.14,63.56,258.86,38.19,273.06Z"/><path class="cls-4" d="M78.38,261c1.18-.11,2.79-1.08,4.61-2.9a79.59,79.59,0,0,0,8.89-9.85c3.86-4.93,7.61-9.54,10.07-9.75,3.86-.11,5.89,2,7.07,4.71s1.07,6.22,1.07,7.5c.43,6.54.86,8.68,2.68,8.68,6.75-1.93,12.64-15.86,13.72-16.18,1.17-.75,3,.11,4,1s1.07,1,1.39,2.79c0,7.82-4.18,24.86-14.89,26.25a14,14,0,0,1-7.39-1.28c-1.39-.54-3.22-1.93-5.68-4.08A23.42,23.42,0,0,1,98.31,261c-5.25,5.25-9,9.21-14.89,10.49-8.36,1.08-14.9-4.06-16.08-11.78-2.25-14.14,17.25-36.75,29.58-39,4.07-.53,10.49,1.82,11.35,6.64a8.56,8.56,0,0,1-7,9.54,6.79,6.79,0,0,1-3.54-.22,1.55,1.55,0,0,1-1-1.17c0-1.4,1.39-3.43-1.29-3.22-3.43.43-7,4.07-10.82,9.54A61.37,61.37,0,0,0,79.24,251c-1.61,3.54-2.47,6.32-2.47,8.47C76.88,260.53,77.41,261.06,78.38,261Z"/><path class="cls-4" d="M211.35,257.85c0,5.89-10.28,12.75-14,13.28-11.14,2.15-10.29-21.53-12-23.67-1.39-1.83-9.65,25-20.25,25-8.57.32-12.43-10.39-12.43-17.79a61.55,61.55,0,0,1,1.5-12.42c.43-1.82.43-2.79,0-2.9-4.29.22-15.86,33.43-20.25,33.43-5.89,0-9.54-1.71-9.54-6.86,0-8,.86-14.89,2.25-24.32,1.61-9.53,3.33-12.85,5.79-13.28,3.43-.54,7.82,2.46,7.82,5.78,0,.32-.21,1.4-.54,3.22-.53,3.75-1.6,7.39-.85,7.82,1.93,0,14.68-19.39,21.75-19.39,4.82,0,7.71,3.85,7.39,6.53-.32,3-3,19-2.68,23.9.11,1.6.54,2.46,1.18,2.46,4.07,0,16.07-27,23.57-27a7.28,7.28,0,0,1,6,4.93c2,5.68,2,22.82,5.46,21.42,4.08-1.49,7.61-4,7.94-3.85C211.57,254.1,211.35,257.53,211.35,257.85Z"/><path class="cls-4" d="M229.69,273.06c-9.21,0-16.18-6.85-16.18-15.21,0-7.93,6.86-20,11.68-24.32a4.59,4.59,0,0,1-3.54-3.43c-.1-1.93,2.36-3.21,7.61-3.75,10.61-1.18,18.54.75,23.36,3.64,7.07,3.86,9.85,9.43,9.85,15.22C262.47,261.06,240.19,273.06,229.69,273.06Zm0-12.32c5.36.54,19.82-9.43,19.39-17.78,0-5.47-11.89-9.11-16.6-8.79,1.07,5.25-5.47,13.29-6.43,23.14C226.05,258.39,225.73,261.28,229.69,260.74Z"/><path class="cls-4" d="M296.23,277.67c-3.85,0-19.39-3.64-19.39-12.32a2.73,2.73,0,0,1,2.89-3c1.4,0,8.79,2.14,10.07,2.14,1.61.11,4-.21,4-1.39-.43-3.75-25.39-14.57-25.39-27.54-.43-9.85,23.67-19.28,29.46-19.28,6.75-.43,10.29,2.57,10.29,9.75,0,3.43-.65,8.57-4.5,8.25-4.61-.32-5.68-1.93-6.43-4.07l-1.29-4.29c-.43-1.82-1.07-2.89-1.93-3.32-2-.86-15.53,6.21-15.53,10.93,0,7.93,32.36,15.86,32.36,31.28C310.81,272.21,303.3,277.67,296.23,277.67Z"/><path class="cls-4" d="M169.51,12.83l-51.25,94.58-39.95-.79s-6.39-1.37,1.14-8S165.78,11.23,169.51,12.83Z"/><path class="cls-4" d="M172.41,14.05,139.72,114.58l32.46,30.29s5.53,3.48,4.76-6.52S176.2,15.51,172.41,14.05Z"/><text class="cls-5" transform="translate(28.48 334.01)"><tspan class="cls-6">L</tspan><tspan x="11.4" y="0">embranças que colam!</tspan></text></g></g></svg>